<svg xmlns="http://www.w3.org/2000/svg" width="37" height="37" viewBox="0 0 34.784 34.784" role="img" aria-label="Flag marker">
  <path
    data-fill="body"
    fill="#d71920"
    stroke="#000000"
    stroke-width="0.5"
    d="M7.01,34.784c-0.796,0-1.439-0.645-1.439-1.439V2.808c0-0.686,0.483-1.278,1.156-1.412
       C6.909,1.36,7.004,1.291,7.28,1.08c1.518-1.166,3.135-1.824,10.133,0.353c7.2,2.244,9.101,0.68,9.111,0.661
       c0.325-0.566,0.986-0.843,1.619-0.678c0.632,0.168,1.071,0.739,1.071,1.392v15.005c0,0.25-0.066,0.497-0.189,0.714
       c-0.368,0.644-2.696,3.7-12.468,0.661c-6.111-1.903-6.961-1.251-7.523-0.82c-0.164,0.126-0.355,0.272-0.585,0.41v14.566
       C8.449,34.139,7.805,34.784,7.01,34.784z"/>
</svg>
