<svg xmlns="http://www.w3.org/2000/svg" width="37" height="37" viewBox="-11.33 0 74.134 74.134" role="img" aria-label="Waypoint marker">
  <!-- Pin body as a polygon: 65 vertices around the head arc (radius 22.764
       at centre (25.738, 25.738)) plus a final vertex at the tip (25.738,
       74.134). The two segments adjacent to the tip are the tangent lines
       from the head down to the point. Stroke/strokeWidth apply to the
       whole boundary, so the editor's Outline controls work as expected. -->
  <polygon
    data-fill="body"
    fill="#0c2c67"
    stroke="#000000"
    stroke-width="0"
    stroke-linejoin="round"
    points="45.827,36.445 46.474,35.131 47.035,33.777 47.508,32.39 47.891,30.975 48.182,29.539 48.381,28.087 48.485,26.625 48.495,25.159 48.41,23.696 48.232,22.242 47.96,20.802 47.597,19.382 47.142,17.989 46.599,16.627 45.97,15.304 45.257,14.024 44.462,12.792 43.59,11.614 42.645,10.494 41.629,9.438 40.547,8.449 39.404,7.532 38.204,6.691 36.953,5.928 35.655,5.248 34.316,4.652 32.941,4.144 31.537,3.725 30.108,3.397 28.661,3.163 27.203,3.021 25.738,2.974 24.273,3.021 22.815,3.163 21.368,3.397 19.939,3.725 18.535,4.144 17.16,4.652 15.821,5.248 14.523,5.928 13.272,6.691 12.072,7.532 10.929,8.449 9.847,9.438 8.831,10.494 7.886,11.614 7.014,12.792 6.219,14.024 5.506,15.304 4.877,16.627 4.334,17.989 3.879,19.382 3.516,20.802 3.244,22.242 3.066,23.696 2.981,25.159 2.991,26.625 3.095,28.087 3.294,29.539 3.585,30.975 3.968,32.39 4.441,33.777 5.002,35.131 5.649,36.445 25.738,74.134"/>
  <!-- Center dot: separate closed circle on top of the body. -->
  <circle cx="25.738" cy="25.738" r="7.616" fill="#ffffff" stroke="none"/>
</svg>
